<?xml version="1.0" encoding="UTF-8"?> <svg xmlns="http://www.w3.org/2000/svg" width="148.894" height="18.762" viewBox="0 0 148.894 18.762"><g id="Group_13" data-name="Group 13" transform="translate(0 0)"><path id="Path_182" data-name="Path 182" d="M971.38,132.757h3.979c3.167,0,4.445-1.572,4.445-4.347s-1.277-4.347-4.445-4.347H971.38Zm-6.925-13.114h13.483c5.942,0,9.086,2.309,9.086,8.767,0,6.164-3.119,8.767-8.939,8.767h-13.63Z" transform="translate(-964.455 -119.029)" fill="#999"></path><rect id="Rectangle_14" data-name="Rectangle 14" width="8.914" height="4.273" transform="translate(24.779 8.792)" fill="#999"></rect><path id="Path_183" data-name="Path 183" d="M1006.446,129.715c-3.389-.515-4.789-2.48-4.789-4.936,0-4.543,4.444-5.771,10.142-5.771,7.809,0,11.027,2.038,11.272,5.746h-8.055a1.445,1.445,0,0,0-1.057-1.4,5.557,5.557,0,0,0-2.161-.367c-2.062,0-2.775.515-2.775,1.252,0,.491.221.81.909.909l8.276,1.228c3.486.515,5.648,2.136,5.648,5.108,0,4.272-3.487,6.286-11.272,6.286-5.329,0-11.15-.737-11.174-5.894h8.35a1.354,1.354,0,0,0,.737,1.253,5.665,5.665,0,0,0,2.357.368c2.162,0,2.751-.59,2.751-1.425,0-.515-.319-1.031-1.252-1.179Z" transform="translate(-965.68 -119.008)" fill="#999"></path><path id="Path_184" data-name="Path 184" d="M1031.545,124.063h-6.409v-4.42h19.744v4.42h-6.409v13.114h-6.925Z" transform="translate(-966.467 -119.029)" fill="#999"></path><path id="Path_185" data-name="Path 185" d="M1054.134,127.355h4.912c1.35,0,1.915-.54,1.915-1.646,0-1.326-.859-1.646-2.014-1.646h-4.813v3.291Zm-6.926-7.712h14.587a9.367,9.367,0,0,1,4.151.638,4.8,4.8,0,0,1,2.382,4.249,3.86,3.86,0,0,1-2.7,4v.049a2.821,2.821,0,0,1,1.989,2.7l.295,3.831a3.911,3.911,0,0,0,.86,2.063h-7.563a11.394,11.394,0,0,1-.369-3.315c-.074-1.3-.515-2.087-1.792-2.087h-4.912v5.4h-6.926V119.643Z" transform="translate(-967.199 -119.029)" fill="#999"></path><path id="Path_186" data-name="Path 186" d="M1082.662,133.35c2.824,0,4.617-1.4,4.617-4.961s-1.793-4.961-4.617-4.961-4.617,1.4-4.617,4.961,1.792,4.961,4.617,4.961m0-14.342c4.2,0,11.984.295,11.984,9.381s-7.785,9.38-11.984,9.38-11.984-.294-11.984-9.38,7.784-9.381,11.984-9.381" transform="translate(-967.977 -119.008)" fill="#999"></path><path id="Path_187" data-name="Path 187" d="M1102.974,132.241l-7.785-12.6h7.908l3.339,6.876,3.34-6.876h7.908l-7.785,12.6v4.936h-6.926Z" transform="translate(-968.79 -119.029)" fill="#999"></path></g></svg> 