<?xml version="1.0" encoding="UTF-8"?> <svg xmlns="http://www.w3.org/2000/svg" width="129.809" height="32.049" viewBox="0 0 129.809 32.049"><g id="Group_8" data-name="Group 8" transform="translate(0 0)"><path id="Path_14" data-name="Path 14" d="M291.484,29.751l1.092-9.086H263.568l-.943,9.086Z" transform="translate(-260.204 -20.665)" fill="#999"></path><path id="Path_15" data-name="Path 15" d="M357.579,29.751c.166-1.354.526-4.913-.172-6.147a5.053,5.053,0,0,0-4.308-2.939H300.114c-2.038.166-3.173.9-4.676,2.771-1.153,1.434-1.5,4.971-1.592,6.315Z" transform="translate(-261.239 -20.665)" fill="#999"></path><path id="Path_16" data-name="Path 16" d="M327.537,33.38l-2.05,19.755h11.092l1.2-12.342h15.234c3.523-.5,5.03-4.5,5.083-7.414H327.537Z" transform="translate(-262.289 -21.087)" fill="#999"></path><path id="Path_17" data-name="Path 17" d="M393.252,29.751l.019-5.413c-.267-2.2-1.938-3.473-4.475-3.673H361.825l-.943,9.086Z" transform="translate(-263.462 -20.665)" fill="#999"></path><path id="Path_18" data-name="Path 18" d="M381.981,33.38,379.93,53.135h11.012l2.376-19.755Z" transform="translate(-264.094 -21.087)" fill="#999"></path><path id="Path_19" data-name="Path 19" d="M360.409,33.38l-2.051,19.755h11.014l2.375-19.755Z" transform="translate(-263.379 -21.087)" fill="#999"></path><path id="Path_20" data-name="Path 20" d="M321.714,33.38H293.355a11.641,11.641,0,0,0,.33,4.645,4.234,4.234,0,0,0,4.254,3.018l15.523-.18-.534,3.206-20.645.069-.935,9h26.595c1.973-.2,4.389-1.829,5.608-5.391.2-.8,1.081-9.11,1.068-9.688a5.321,5.321,0,0,0-2.905-4.677" transform="translate(-261.156 -21.087)" fill="#999"></path><path id="Path_21" data-name="Path 21" d="M289.987,41.4l.964-8.018h-28.8l-2.031,19.576v.18h28.454l1.091-9.066H272.538l.4-2.671Z" transform="translate(-260.121 -21.087)" fill="#999"></path></g></svg> 