<?xml version="1.0" encoding="UTF-8"?> <svg xmlns="http://www.w3.org/2000/svg" id="Group_9" data-name="Group 9" width="107.087" height="46.17" viewBox="0 0 107.087 46.17"><path id="Path_22" data-name="Path 22" d="M580.694,43.78a7.657,7.657,0,0,1-7.757-7.6A7.692,7.692,0,0,1,587.9,33.769H583.97a3.525,3.525,0,0,0-3.381-1.992,4.114,4.114,0,0,0-4.14,4.377,4.219,4.219,0,0,0,4.219,4.428,3.627,3.627,0,0,0,3.3-1.912H587.9a7.389,7.389,0,0,1-7.207,5.11" transform="translate(-529.197 -12.901)" fill="#999"></path><rect id="Rectangle_5" data-name="Rectangle 5" width="3.485" height="20.1" transform="translate(59.857 10.439)" fill="#999"></rect><path id="Path_23" data-name="Path 23" d="M595.65,23.16h3.485v3.485H595.65Zm-.026,5.582h3.485V43.26h-3.485Z" transform="translate(-529.949 -12.721)" fill="#999"></path><path id="Path_24" data-name="Path 24" d="M609.162,31.777a4.4,4.4,0,0,0,.052,8.805,4.2,4.2,0,0,0,4.115-4.376,4.225,4.225,0,0,0-4.167-4.429m.42,12a6.208,6.208,0,0,1-4.455-1.7v6.945h-3.485v-20.1h3.2v1.7a6.128,6.128,0,0,1,4.769-2.044c4.193,0,7.233,3.17,7.233,7.547,0,4.4-3.066,7.652-7.259,7.652" transform="translate(-530.149 -12.901)" fill="#999"></path><path id="Path_25" data-name="Path 25" d="M622.877,23.344h1.409v1.409h-1.409Zm-.011,2.256h1.409v5.867h-1.409Z" transform="translate(-530.853 -12.727)" fill="#999"></path><path id="Path_26" data-name="Path 26" d="M628.148,26.827a1.781,1.781,0,1,0,1.7,1.779,1.742,1.742,0,0,0-1.7-1.779m0,4.851a3.072,3.072,0,1,1,3.124-3.029,3.1,3.1,0,0,1-3.124,3.029" transform="translate(-530.925 -12.8)" fill="#999"></path><path id="Path_27" data-name="Path 27" d="M633.714,26.891v4.586h-1.409V26.891h-.688V25.61h.688V23.65h1.409v1.96h.847v1.281Z" transform="translate(-531.143 -12.737)" fill="#999"></path><path id="Path_28" data-name="Path 28" d="M636.619,32.468l-.814-.631a7.059,7.059,0,0,0,0-8.787l.813-.631a8.088,8.088,0,0,1,0,10.049" transform="translate(-531.282 -12.696)" fill="#999"></path><path id="Path_29" data-name="Path 29" d="M620.508,32.468a8.085,8.085,0,0,1,0-10.049l.813.631a7.059,7.059,0,0,0,0,8.787Z" transform="translate(-530.716 -12.696)" fill="#999"></path><path id="Path_30" data-name="Path 30" d="M550.788,58.533a23.091,23.091,0,1,1,16.328-39.419l-2.464,2.464a19.606,19.606,0,1,0,0,27.728l2.464,2.464a22.939,22.939,0,0,1-16.328,6.763" transform="translate(-527.697 -12.363)" fill="#999"></path><path id="Path_31" data-name="Path 31" d="M551.034,51.613a15.925,15.925,0,1,1,11.261-27.185l-2.464,2.463a12.44,12.44,0,1,0,0,17.595l2.464,2.464a15.821,15.821,0,0,1-11.261,4.664" transform="translate(-527.943 -12.608)" fill="#999"></path><path id="Path_32" data-name="Path 32" d="M551.289,44.434a8.491,8.491,0,1,1,6-14.495L554.83,32.4a5.006,5.006,0,1,0,0,7.08l2.463,2.464a8.434,8.434,0,0,1-6,2.487" transform="translate(-528.198 -12.863)" fill="#999"></path></svg> 