<?xml version="1.0" encoding="UTF-8"?> <svg xmlns="http://www.w3.org/2000/svg" width="67.53" height="88.225" viewBox="0 0 67.53 88.225"><g id="Group_21" data-name="Group 21" transform="translate(0 0)"><path id="Path_146" data-name="Path 146" d="M572.657,237.318a29.548,29.548,0,0,1,13.791-39.729L574.511,193.4a29.53,29.53,0,0,0-1.854,43.921" transform="translate(-548.671 -193.397)" fill="#999"></path><path id="Path_147" data-name="Path 147" d="M566.51,246.4a29.435,29.435,0,0,0,22.842-1.935,29.567,29.567,0,0,1-33.528-25.4l-7.67,10.058A29.469,29.469,0,0,0,566.51,246.4" transform="translate(-548.154 -194.248)" fill="#999"></path><path id="Path_148" data-name="Path 148" d="M573.951,264.85a29.523,29.523,0,0,0,27.32-34.437,29.541,29.541,0,0,1-34.513,24.028Z" transform="translate(-548.771 -194.624)" fill="#999"></path><path id="Path_149" data-name="Path 149" d="M602.016,223.461a29.521,29.521,0,0,1,2.054,31.472l12.117-3.63a29.528,29.528,0,0,0-24.305-36.62,29.46,29.46,0,0,1,10.134,8.779" transform="translate(-549.604 -194.103)" fill="#999"></path><path id="Path_150" data-name="Path 150" d="M585.132,212.388A29.533,29.533,0,0,1,615.7,220.16l.289-12.645a29.525,29.525,0,0,0-42.343,11.805,29.467,29.467,0,0,1,11.485-6.932" transform="translate(-548.999 -193.711)" fill="#999"></path><path id="Path_151" data-name="Path 151" d="M589.728,234.566c-.411.2-.811.393-1.227.575s-.827.36-1.25.53c-.38.15-.753.289-1.129.427-.341-.2-.674-.4-1.006-.614-.38-.241-.739-.479-1.113-.727s-.716-.511-1.076-.773c-.305-.234-.606-.466-.9-.711l.593-5.012c.351-.183.7-.356,1.056-.53.4-.2.8-.389,1.211-.575s.815-.369,1.23-.548c.368-.152.727-.3,1.1-.446l2.065,1.419,2.046,1.491c-.023.388-.047.766-.078,1.158-.035.443-.072.874-.115,1.32s-.095.879-.154,1.319c-.047.38-.1.756-.155,1.135-.369.2-.729.387-1.091.561m-15.005-4.074c0,.374.012.742.049,1.127.207.31.425.606.663.9.256.314.517.605.8.9s.563.552.879.822c.241.209.5.411.795.63.277-.128.8-.38.8-.38l2.669-1.29.6-5.027c-.256-.243-.5-.48-.751-.734-.285-.285-.559-.576-.846-.862s-.55-.591-.824-.889c-.226-.248-.446-.5-.663-.747-.281.1-.55.2-.828.311-.345.142-.671.286-1,.444s-.647.325-.97.51c-.3.162-.57.329-.839.508-.115.388-.2.759-.281,1.131a12.07,12.07,0,0,0-.191,1.283,12.29,12.29,0,0,0-.07,1.284v.077Zm-.583-6.458c.049.15.106.3.159.448.091.218.183.431.284.651s.205.417.316.626c.055.106.112.209.174.312.222-.136.456-.278.713-.422.339-.2.667-.365,1.008-.53s.692-.314,1.038-.46c.289-.119.6-.234.936-.346.166-.339.345-.672.542-1.027.221-.385.446-.743.674-1.1s.484-.71.744-1.055c.222-.3.444-.573.67-.842l-.926-2.123c-.217.059-.423.125-.628.192-.3.107-.585.214-.862.337s-.554.256-.828.406c-.078.037-.15.089-.219.128-.159.125-.318.245-.469.373-.008.009-.018.009-.024.016a13,13,0,0,0-3.3,4.412m9.536-7.37c-.106.033-.207.057-.307.1-.321.115-.608.238-.881.364-.29.135-.567.273-.844.431-.206.115-.4.23-.586.351l.922,2.109c.4,0,.768.023,1.131.044.462.033.891.082,1.325.135s.879.137,1.306.228.815.183,1.2.285c.273-.154.548-.3.83-.442.339-.166.665-.324,1.008-.48s.688-.3,1.043-.431c.265-.1.53-.2.8-.3a3.216,3.216,0,0,0-.636-1.409,3.229,3.229,0,0,0-.659-.628,2.529,2.529,0,0,0-.318-.17c-.105-.031-.2-.059-.31-.086a.585.585,0,0,0-.126-.044l-.01.013a12.944,12.944,0,0,0-2.651-.273,12.622,12.622,0,0,0-2.231.2M598.638,231.6c-.073.027-.148.056-.219.074a3.467,3.467,0,0,1-.462.115,2.611,2.611,0,0,1-.273.051c-.128.324-.265.638-.427.965a10.633,10.633,0,0,1-.678,1.179,11.141,11.141,0,0,1-.807,1.094c-.256.306-.53.6-.833.9a8.557,8.557,0,0,1-.1.869,7.38,7.38,0,0,1-.245,1.035,7.584,7.584,0,0,1-.365.994c-.068.15-.135.3-.21.44.078-.02.151-.042.228-.068l.119-.049,0-.007a12.933,12.933,0,0,0,4.275-7.59m-9.875,4.132c-.427.187-.842.357-1.273.534-.384.15-.759.289-1.144.427l-.232.806-.305.955-.583,1.661c.188.13.38.245.587.367a8.312,8.312,0,0,0,.871.44,9.291,9.291,0,0,0,.914.351c.285.095.57.175.877.245.429-.1.828-.21,1.219-.339.427-.135.838-.3,1.255-.476a12.715,12.715,0,0,0,1.2-.6c.371-.211.722-.431,1.076-.68a8.18,8.18,0,0,0,.419-.806,8.821,8.821,0,0,0,.343-.915,7.633,7.633,0,0,0,.216-.956,6.584,6.584,0,0,0,.09-.742c-.221-.082-.451-.162-.669-.257-.316-.119-.621-.249-.928-.384s-.606-.277-.91-.423c-.234-.115-.46-.232-.7-.356-.358.2-.709.38-1.08.559-.44.219-.851.411-1.247.592m2.181-16.11c-.3.1-.6.208-.9.329-.339.132-.67.27-1,.417s-.661.3-.985.471c-.265.133-.522.271-.778.411.035.32.064.626.1.948.037.4.07.795.09,1.2s.049.8.066,1.2c.013.345.02.682.029,1.022l2.08,1.436,2.072,1.511,1.789-.708,1.807-.773c.031-.345.051-.684.056-1.016.008-.405,0-.795-.016-1.2s-.066-.786-.119-1.2c-.052-.372-.113-.731-.189-1.092-.292-.285-.589-.555-.91-.83-.355-.3-.692-.561-1.047-.811s-.707-.5-1.1-.736c-.343-.2-.678-.4-1.043-.579m5.729,2.621-.974.371c.068.345.123.667.166.97.053.423.1.825.123,1.246s.029.835.016,1.259c0,.371-.024.737-.063,1.125.2.281.4.572.581.881a9.794,9.794,0,0,1,.55,1.051,10.25,10.25,0,0,1,.427,1.1c.1.312.183.619.256.937a.5.5,0,0,0,.068-.016,3.562,3.562,0,0,0,.409-.1c.135-.038.256-.082.386-.132a1.034,1.034,0,0,0,.14-.066,12.4,12.4,0,0,0,.082-1.46,12.844,12.844,0,0,0-2.169-7.159M587.7,242.207c.045-.035.128-.094.221-.166-.185-.049-.355-.1-.523-.158a9.346,9.346,0,0,1-.976-.367c-.312-.142-.614-.3-.932-.475-.255-.15-.511-.312-.785-.5-.4.026-.782.026-1.146.014a12.612,12.612,0,0,1-1.323-.124,12.212,12.212,0,0,1-1.3-.269c-.367-.1-.719-.212-1.082-.343-.064.051-.13.1-.191.155-.13.094-.248.176-.378.254a1.741,1.741,0,0,1-.228.13,12.843,12.843,0,0,0,6.851,1.981,13.818,13.818,0,0,0,1.793-.132m-9.263-2.26c.053-.024.111-.049.166-.076a3.024,3.024,0,0,0,.347-.192,2.883,2.883,0,0,0,.318-.212c.035-.027.066-.049.095-.073-.162-.245-.325-.5-.475-.767-.194-.342-.373-.689-.538-1.058a11.8,11.8,0,0,1-.444-1.106c-.126-.345-.223-.688-.316-1.029-.32-.235-.616-.467-.893-.7-.3-.261-.608-.544-.922-.862-.285-.294-.558-.6-.832-.941-.219-.273-.419-.538-.612-.811a1.135,1.135,0,0,0-.146.06,3.02,3.02,0,0,0-.357.166,2.687,2.687,0,0,0-.347.2c-.033.016-.066.042-.1.06a12.977,12.977,0,0,0,5.054,7.345" transform="translate(-548.991 -194.162)" fill="#999"></path><path id="Path_152" data-name="Path 152" d="M585.82,237.974l.245-.835c-.351-.206-.7-.415-1.039-.633-.384-.24-.749-.484-1.123-.745s-.735-.509-1.093-.778c-.338-.248-.656-.5-.983-.766l-.8.393-.97.47-.973.466-.855.4c.086.328.181.651.292.969a9.84,9.84,0,0,0,.431,1.067c.158.352.328.688.517,1.023.183.318.375.619.583.922a10.225,10.225,0,0,0,1.171.384,10.867,10.867,0,0,0,1.246.254,10.242,10.242,0,0,0,1.271.122c.4.012.77.008,1.164-.013l.289-.807.327-.945Z" transform="translate(-549.151 -194.751)" fill="#999"></path><path id="Path_153" data-name="Path 153" d="M574,232.046c.1-.044.2-.073.292-.106-.035-.407-.051-.8-.047-1.21a12.622,12.622,0,0,1,.071-1.337c.044-.444.111-.879.2-1.325.084-.4.179-.795.294-1.191-.115-.187-.222-.376-.327-.573-.121-.216-.228-.431-.331-.653-.064-.137-.119-.277-.174-.411a12.81,12.81,0,0,0-.8,4.45,12.99,12.99,0,0,0,.269,2.633c.056-.029.107-.064.162-.089a3.882,3.882,0,0,1,.4-.189" transform="translate(-548.984 -194.453)" fill="#999"></path><path id="Path_154" data-name="Path 154" d="M579.393,224.708c.245.281.482.546.725.819.275.3.544.592.821.882s.551.572.842.858c.255.261.508.51.776.756.365-.189.725-.371,1.107-.554.408-.206.806-.393,1.226-.586s.819-.367,1.241-.546c.386-.166.766-.316,1.154-.47,0-.367-.013-.723-.024-1.08-.016-.407-.04-.795-.066-1.191s-.053-.791-.093-1.189c-.031-.364-.068-.716-.11-1.076-.376-.1-.752-.193-1.142-.269-.422-.095-.84-.166-1.271-.226s-.857-.1-1.3-.137c-.405-.02-.811-.037-1.22-.037-.256.3-.5.605-.745.921-.254.341-.493.68-.725,1.034s-.443.706-.656,1.076c-.191.338-.372.673-.542,1.016" transform="translate(-549.19 -194.301)" fill="#999"></path><path id="Path_155" data-name="Path 155" d="M590.659,217.114a3.009,3.009,0,0,1,.274.281,3.343,3.343,0,0,1,.519.9,3.566,3.566,0,0,1,.248.926c.382.193.744.4,1.111.618.392.241.76.489,1.131.758s.723.542,1.078.835c.318.274.626.553.924.847.119-.044.807-.308,1.191-.456a12.957,12.957,0,0,0-6.477-4.707" transform="translate(-549.564 -194.183)" fill="#999"></path><path id="Path_156" data-name="Path 156" d="M596.731,228.745a9.709,9.709,0,0,0-.557-.835l-.87.38-1,.419-1.008.408-.875.337c-.02.406-.046.8-.082,1.213-.033.458-.072.889-.113,1.337s-.095.885-.156,1.332c-.049.405-.105.807-.166,1.211.236.126.472.245.713.36.3.15.591.287.893.415s.6.265.912.384c.273.109.542.21.815.312a11.144,11.144,0,0,0,.786-.846,11.812,11.812,0,0,0,.776-1.045,11,11,0,0,0,.645-1.131,10.134,10.134,0,0,0,.5-1.151c-.075-.353-.166-.7-.277-1.047a10.946,10.946,0,0,0-.41-1.056,10.288,10.288,0,0,0-.524-1" transform="translate(-549.605 -194.541)" fill="#999"></path><path id="Path_157" data-name="Path 157" d="M550.7,284.363c-.782,0-1.1-.106-1.386-.391-.45-.45-.663-1.22-.663-3.755s.214-3.317.663-3.755c.284-.284.6-.392,1.386-.392h2.725a1.9,1.9,0,0,1,1.41.356c.415.415.533,1.078.557,2.641h-1.836c-.024-1.019-.06-1.267-.154-1.362-.072-.071-.178-.095-.51-.095h-1.576c-.367,0-.462.024-.545.095-.095.106-.154.4-.154,2.512s.059,2.4.154,2.5.178.106.545.106h1.576c.343,0,.438-.036.51-.106.094-.095.118-.284.154-1.445h1.836c-.024,1.623-.13,2.3-.557,2.713a1.845,1.845,0,0,1-1.421.379Z" transform="translate(-548.17 -196.138)" fill="#999"></path><path id="Path_158" data-name="Path 158" d="M559.158,282.716c.083.082.178.106.545.106h1.575c.356,0,.462-.024.533-.106.107-.095.155-.4.155-2.5s-.047-2.4-.155-2.511c-.07-.072-.177-.095-.533-.095H559.7c-.367,0-.462.023-.545.095-.095.106-.154.4-.154,2.511s.059,2.406.154,2.5m2.725-6.646c.794,0,1.1.106,1.385.391.451.439.664,1.209.664,3.755s-.214,3.306-.664,3.755c-.284.284-.592.392-1.385.392h-2.8c-.782,0-1.1-.107-1.386-.392-.451-.45-.663-1.22-.663-3.755s.213-3.316.663-3.755c.284-.284.6-.391,1.386-.391Z" transform="translate(-548.449 -196.138)" fill="#999"></path><path id="Path_159" data-name="Path 159" d="M571.516,277.551h-.959V276.07h3.625v1.481h-.972v6.811h-1.765a.684.684,0,0,1-.77-.5l-2.5-5.247h-.119v4.252h1v1.493h-3.685V282.87h.995v-5.319h-.995V276.07h2.961c.439,0,.568.107.771.5l2.3,4.856h.119Z" transform="translate(-548.725 -196.138)" fill="#999"></path><path id="Path_160" data-name="Path 160" d="M577.6,284.363c-.782,0-1.1-.106-1.385-.391-.451-.45-.664-1.22-.664-3.755s.214-3.317.664-3.755c.284-.284.6-.392,1.385-.392h2.725a1.9,1.9,0,0,1,1.41.356c.415.415.533,1.078.557,2.641h-1.836c-.024-1.019-.059-1.267-.154-1.362-.072-.071-.178-.095-.509-.095h-1.576c-.367,0-.462.024-.545.095-.095.106-.154.4-.154,2.512s.059,2.4.154,2.5.178.106.545.106h1.576c.343,0,.438-.036.509-.106.095-.095.118-.284.154-1.445h1.836c-.024,1.623-.13,2.3-.557,2.713a1.846,1.846,0,0,1-1.421.379Z" transform="translate(-549.063 -196.138)" fill="#999"></path><path id="Path_161" data-name="Path 161" d="M586.729,280.393h1.718l-.782-2.7h-.154Zm-3.352,3.968v-1.493h.805l2.038-6.243c.154-.462.319-.592.781-.592h1.339c.462,0,.628.13.781.592l2.038,6.243h.794v1.493H588.21v-1.469h.948l-.32-1.09h-2.5l-.307,1.09h.948v1.469Z" transform="translate(-549.322 -196.137)" fill="#999"></path><path id="Path_162" data-name="Path 162" d="M595.117,284.363c-.782,0-1.1-.106-1.386-.391-.451-.45-.664-1.22-.664-3.755s.214-3.317.664-3.755c.284-.284.6-.392,1.386-.392h2.725a1.9,1.9,0,0,1,1.41.356c.415.415.533,1.078.557,2.641h-1.836c-.024-1.019-.059-1.267-.154-1.362-.072-.071-.178-.095-.51-.095h-1.576c-.367,0-.462.024-.545.095-.095.106-.154.4-.154,2.512s.059,2.4.154,2.5.178.106.545.106h1.576c.343,0,.438-.036.51-.106.095-.095.118-.284.154-1.445h1.836c-.024,1.623-.131,2.3-.557,2.713a1.846,1.846,0,0,1-1.421.379Z" transform="translate(-549.643 -196.138)" fill="#999"></path><path id="Path_163" data-name="Path 163" d="M604.248,280.393h1.718l-.782-2.7h-.154Zm-3.352,3.968v-1.493h.806l2.038-6.243c.154-.462.319-.592.781-.592h1.339c.462,0,.627.13.781.592l2.038,6.243h.794v1.493h-3.744v-1.469h.947l-.32-1.09h-2.5l-.307,1.09h.948v1.469Z" transform="translate(-549.903 -196.137)" fill="#999"></path><path id="Path_164" data-name="Path 164" d="M610.427,277.551V276.07h6.847v2.737h-1.659V277.54H613.27v1.978H615.2v1.4H613.27v1.954h1.066v1.493h-3.909V282.87h.995v-5.319Z" transform="translate(-550.219 -196.138)" fill="#999"></path></g></svg> 