<?xml version="1.0" encoding="UTF-8"?> <svg xmlns="http://www.w3.org/2000/svg" width="131.788" height="27.473" viewBox="0 0 131.788 27.473"><g id="Group_7" data-name="Group 7" transform="translate(0 -0.001)"><path id="Path_2" data-name="Path 2" d="M109.211,22.626a.959.959,0,0,1,.967,1.029.93.93,0,0,1-.967,1.029.907.907,0,0,1-.947-1.029.944.944,0,0,1,.947-1.029m-1.841,1.229a1.625,1.625,0,0,0,1.815,1.712,1.79,1.79,0,0,0,1.881-1.5s.024-.186.035-.322c0-.054,0-.1,0-.151a1.953,1.953,0,0,0-.477-1.322,1.551,1.551,0,0,0-1.2-.538,1.332,1.332,0,0,0-1.131.519l-.006.014V20.119a.059.059,0,0,0-.058-.057h-.8a.057.057,0,0,0-.057.057v3.736Z" transform="translate(-3.56 -19.894)" fill="#999"></path><path id="Path_3" data-name="Path 3" d="M111.659,25.311a.057.057,0,0,0,.058.058h.8a.059.059,0,0,0,.058-.058V20.128a.058.058,0,0,0-.058-.057h-.8a.056.056,0,0,0-.058.057Z" transform="translate(-3.703 -19.894)" fill="#999"></path><path id="Path_4" data-name="Path 4" d="M120.268,21.885h-.827a.092.092,0,0,0-.08.053l-.832,2.322c-.012.03-.031.03-.043,0l-.826-2.322a.091.091,0,0,0-.08-.053h-.861a.059.059,0,0,0-.059.057l.011.026L118,25.376a.1.1,0,0,0,.083.052h.845a.093.093,0,0,0,.081-.054l1.295-3.436a.037.037,0,0,0-.039-.053" transform="translate(-3.868 -19.954)" fill="#999"></path><path id="Path_5" data-name="Path 5" d="M123.646,23.274c-.238-.06-.474-.1-.648-.16s-.279-.14-.279-.283a.3.3,0,0,1,.158-.267.651.651,0,0,1,.33-.084.773.773,0,0,1,.653.327l.078,0h0l.527-.474,0,0a.059.059,0,0,0,0-.082v0a1.557,1.557,0,0,0-1.237-.506,1.722,1.722,0,0,0-.981.276,1.023,1.023,0,0,0-.448.876c0,.682.489.882.962.995a5.274,5.274,0,0,1,.646.165c.174.068.281.159.281.328a.329.329,0,0,1-.183.286.805.805,0,0,1-.379.094,1.032,1.032,0,0,1-.792-.4h0a.06.06,0,0,0-.083,0l-.486.456-.039.04a.059.059,0,0,0,0,.082l.093.094a1.785,1.785,0,0,0,1.259.425h0a2.014,2.014,0,0,0,1.033-.252,1,1,0,0,0,.5-.892c0-.7-.487-.918-.962-1.037M126,21.825h-.8a.058.058,0,0,0-.057.057v3.429a.057.057,0,0,0,.057.058h.8a.059.059,0,0,0,.059-.058V21.882a.059.059,0,0,0-.059-.057m-5.309-1.752a.521.521,0,1,0,.56.52.534.534,0,0,0-.56-.52m7.683,4.552c-.63,0-.889-.49-.889-1.028s.259-1.029.889-1.029.89.491.891,1.029-.261,1.028-.891,1.028m0-2.887a1.83,1.83,0,0,0-1.3.511,2.053,2.053,0,0,0,0,2.7,1.924,1.924,0,0,0,2.61,0,2.056,2.056,0,0,0,0-2.7,1.836,1.836,0,0,0-1.306-.511m5.306.429a1.21,1.21,0,0,0-1.007-.429,1.115,1.115,0,0,0-1.057.592h-.01v-.448a.058.058,0,0,0-.057-.057h-.762a.058.058,0,0,0-.056.053v3.434a.059.059,0,0,0,.059.057h.8a.059.059,0,0,0,.059-.056V23.437c0-.461.217-.867.78-.868a.525.525,0,0,1,.531.356,1.83,1.83,0,0,1,.089.651v1.736a.058.058,0,0,0,.058.058h.8a.058.058,0,0,0,.057-.051v-2.18a1.565,1.565,0,0,0-.29-.971m-8.086-2.094a.521.521,0,1,0,.563.52.533.533,0,0,0-.563-.52m-19.71,3.9c0,.479-.27.777-.86.781a.58.58,0,0,1-.343-.106.38.38,0,0,1-.189-.332c0-.238.135-.365.4-.438a3.368,3.368,0,0,1,.824-.08h.168Zm-.635-2.238a1.939,1.939,0,0,0-1.421.545l0,.072.42.421h.073a1.209,1.209,0,0,1,.838-.337c.459,0,.779.218.779.635v.073h-.2a4.381,4.381,0,0,0-1.438.183,1.02,1.02,0,0,0-.727,1.056,1.109,1.109,0,0,0,1.239,1.072h0a1.283,1.283,0,0,0,1.122-.551v.174a.283.283,0,0,0,.286.29h.486a.059.059,0,0,0,.058-.058v-.145h0V23.334a2,2,0,0,0-.189-.984,1.371,1.371,0,0,0-1.328-.612m22.857-.569h.619a.153.153,0,0,0,.1-.042l.99-1.011c.023-.022.014-.042-.017-.042h-.94a.194.194,0,0,0-.059,0,.592.592,0,0,0-.038.053l-.68.988c-.019.026-.007.048.025.048m-7.009.656h-.8a.059.059,0,0,0-.058.057v3.429a.058.058,0,0,0,.058.058h.8a.061.061,0,0,0,.06-.058V21.882a.061.061,0,0,0-.06-.057m-5.766,1.4h-1.612l-.008-.008a.829.829,0,0,1,.819-.779.732.732,0,0,1,.807.778Zm-.676-1.486a1.979,1.979,0,0,0-1.365.511,2.056,2.056,0,0,0,0,2.7,1.979,1.979,0,0,0,1.365.51h0a1.726,1.726,0,0,0,1.41-.675.058.058,0,0,0,0-.083h0l-.564-.425,0,0a.062.062,0,0,0-.083,0h0a1,1,0,0,1-.847.444.832.832,0,0,1-.859-.789h2.347v0h.145a.059.059,0,0,0,.058-.058v-.13h0v-.073a2.089,2.089,0,0,0-.46-1.422,1.428,1.428,0,0,0-1.144-.5" transform="translate(-3.434 -19.894)" fill="#999"></path><path id="Path_6" data-name="Path 6" d="M101.434,20.9h.007a1.331,1.331,0,0,1,1.1.625c.037.048.055.064.112.024l.56-.417a.093.093,0,0,0,.038-.1l0-.006a2.1,2.1,0,0,0-1.322-.952,2.552,2.552,0,0,0-.451-.044,2.279,2.279,0,0,0-1.744.752,2.875,2.875,0,0,0-.652,2.005,2.8,2.8,0,0,0,.652,1.966,2.288,2.288,0,0,0,1.744.747h0a1.934,1.934,0,0,0,1.69-.833l0,0c.036-.05.04-.083.006-.108l-.622-.487a.088.088,0,0,0-.093.015,1.14,1.14,0,0,1-.973.54c-.958,0-1.486-.8-1.486-1.9,0-.95.483-1.823,1.441-1.824" transform="translate(-3.285 -19.893)" fill="#999"></path><path id="Path_7" data-name="Path 7" d="M36.811,22.355a2.591,2.591,0,1,1-2.583-2.388,2.491,2.491,0,0,1,2.583,2.388" transform="translate(-1.049 -19.891)" fill="#999"></path><path id="Path_8" data-name="Path 8" d="M135.014,38.324a6.084,6.084,0,0,0-1.8-1.682,8.3,8.3,0,0,0-2.314-.968q-1.247-.318-2.276-.555-.988-.2-1.739-.376a9.04,9.04,0,0,1-1.287-.394,1.994,1.994,0,0,1-.809-.554,1.292,1.292,0,0,1-.277-.853,1.546,1.546,0,0,1,.851-1.4,4.9,4.9,0,0,1,2.433-.493,7.271,7.271,0,0,1,3.185.712,8,8,0,0,1,1.343.809l2.322-3.018a4.97,4.97,0,0,0-1.352-1.194,11.127,11.127,0,0,0-5.855-1.226,11.457,11.457,0,0,0-3.322.454,7.8,7.8,0,0,0-2.552,1.267,5.536,5.536,0,0,0-2.2,4.53,4.729,4.729,0,0,0,.692,2.69,5.6,5.6,0,0,0,1.72,1.662A8.293,8.293,0,0,0,124,38.68c.793.211,1.516.394,2.176.554q.989.2,1.762.375a7.192,7.192,0,0,1,1.3.416,2.158,2.158,0,0,1,.811.573,1.364,1.364,0,0,1,.277.89,1.5,1.5,0,0,1-.87,1.385,5.392,5.392,0,0,1-2.532.475,8.723,8.723,0,0,1-3.738-.751,10.27,10.27,0,0,1-1.385-.782L119.55,44.86A5.541,5.541,0,0,0,120.931,46q2.077,1.265,6.309,1.266a10.351,10.351,0,0,0,6.252-1.662,5.381,5.381,0,0,0,2.255-4.589,4.535,4.535,0,0,0-.732-2.69" transform="translate(-3.958 -20.128)" fill="#999"></path><path id="Path_9" data-name="Path 9" d="M5.808,46.689c.017-.2.028-.4.028-.619V29.15l4.534,11.443q.168.447.335.824a1.9,1.9,0,0,0,.463.646,2.087,2.087,0,0,0,.838.423,5.573,5.573,0,0,0,1.471.156,5.557,5.557,0,0,0,1.469-.156,2.108,2.108,0,0,0,.86-.446,1.992,1.992,0,0,0,.483-.668c.112-.252.224-.511.335-.779l4.534-11.666V46.07a5.945,5.945,0,0,0,.032.619h5.775c.018-.2.029-.4.029-.619V23.184a3.386,3.386,0,0,0-.819-2.45,3.091,3.091,0,0,0-2.329-.846H22.21a3.136,3.136,0,0,0-1.933.489A4.739,4.739,0,0,0,19.06,22.2L13.518,35.873,8.018,22.2a4.667,4.667,0,0,0-1.175-1.8,3.28,3.28,0,0,0-2.057-.511H3.064A2.965,2.965,0,0,0,.8,20.734a3.44,3.44,0,0,0-.8,2.45V46.07c0,.219.011.423.029.619Z" transform="translate(0 -19.888)" fill="#999"></path><path id="Path_10" data-name="Path 10" d="M51.432,33.1c.107.043.21.089.308.138L53.233,28.5a3.774,3.774,0,0,0-2.519-.785,4.5,4.5,0,0,0-2.895.913,5.531,5.531,0,0,0-1.729,2.544,4.272,4.272,0,0,0-.466-1.592,3.493,3.493,0,0,0-.8-.991,2.474,2.474,0,0,0-.99-.5,4.466,4.466,0,0,0-1.089-.136,3.777,3.777,0,0,0-1.437.253q-.622.252-.622.368V44.655a21.278,21.278,0,0,0,.037,2.2.331.331,0,0,0,.068.158c1.744.012,3.488.045,5.234.026a.279.279,0,0,0,.106-.216c0-.584.031-1.185.031-2.171V38.984a9.286,9.286,0,0,1,.915-4.507,3.111,3.111,0,0,1,2.933-1.631,3.863,3.863,0,0,1,1.417.252" transform="translate(-1.349 -20.148)" fill="#999"></path><path id="Path_11" data-name="Path 11" d="M62.242,43.7a4.68,4.68,0,0,0,3.341-1.2,4.026,4.026,0,0,0,1.283-3.069V38.34l-1.011.039a14.1,14.1,0,0,0-4.914.777,2.35,2.35,0,0,0-1.65,2.254,2.011,2.011,0,0,0,.8,1.67,3.413,3.413,0,0,0,2.156.622m.739-12.121a5.109,5.109,0,0,0-3.069.893,3.6,3.6,0,0,0-1.254,1.343c-.014.021-3.688-2.274-3.832-2.828-.168-.648,1.324-1.609,2.036-2.05a9.586,9.586,0,0,1,2.68-1.068,15.533,15.533,0,0,1,3.788-.408q4.507,0,6.721,1.981a7.416,7.416,0,0,1,2.215,5.828L72.24,47.032a9.853,9.853,0,0,1-2.032.088c-3.067.1-3.374-.426-3.374-1.624,0,1.761-4.993,1.779-6.417,1.779a6.769,6.769,0,0,1-4.681-1.514,5.451,5.451,0,0,1,1.282-8.8q2.973-1.534,9.228-1.613h.622q0-3.768-3.886-3.769" transform="translate(-1.792 -20.139)" fill="#999"></path><rect id="Rectangle_4" data-name="Rectangle 4" width="5.042" height="19.224" transform="translate(30.555 7.632)" fill="#999"></rect><path id="Path_12" data-name="Path 12" d="M85.136,42.672a4.946,4.946,0,1,1,4.753-4.943,4.852,4.852,0,0,1-4.753,4.943M95.357,20.026H90.111L90.1,30.784a6.109,6.109,0,0,0-2.389-1.976,8.15,8.15,0,0,0-3.672-.783,9.409,9.409,0,0,0-3.613.672,7.867,7.867,0,0,0-2.8,1.918,8.716,8.716,0,0,0-1.806,3.019,11.481,11.481,0,0,0-.642,3.932,11.048,11.048,0,0,0,.661,3.894,8.915,8.915,0,0,0,1.826,3.018,8.094,8.094,0,0,0,2.778,1.939,11.827,11.827,0,0,0,3.543.9c5.328.492,10.7-2.95,11.186-9.138,0,0,.2-17.912.182-18.155" transform="translate(-2.493 -19.893)" fill="#999"></path><path id="Path_13" data-name="Path 13" d="M105.984,43.7a4.683,4.683,0,0,0,3.342-1.2,4.028,4.028,0,0,0,1.282-3.069V38.34l-1.01.039a14.1,14.1,0,0,0-4.913.777,2.349,2.349,0,0,0-1.651,2.254,2.009,2.009,0,0,0,.8,1.67,3.412,3.412,0,0,0,2.155.622m.74-12.121a5.107,5.107,0,0,0-3.069.893,3.591,3.591,0,0,0-1.255,1.343c-.015.021-3.689-2.274-3.832-2.828-.167-.648,1.324-1.609,2.037-2.05a9.579,9.579,0,0,1,2.679-1.068,15.539,15.539,0,0,1,3.788-.408q4.507,0,6.721,1.981a7.416,7.416,0,0,1,2.215,5.828l-.027,11.761a9.857,9.857,0,0,1-2.032.088c-3.066.1-3.373-.426-3.373-1.624,0,1.761-4.993,1.779-6.417,1.779a6.769,6.769,0,0,1-4.681-1.514,5.45,5.45,0,0,1,1.281-8.8q2.973-1.534,9.228-1.613h.621q0-3.768-3.885-3.769" transform="translate(-3.243 -20.139)" fill="#999"></path></g></svg> 