<?xml version="1.0" encoding="UTF-8"?> <svg xmlns="http://www.w3.org/2000/svg" width="131.788" height="33.869" viewBox="0 0 131.788 33.869"><g id="Group_18" data-name="Group 18" transform="translate(0 -0.001)"><path id="Path_61" data-name="Path 61" d="M83.478,115.081a11.936,11.936,0,1,0,12.171,11.932,12.162,12.162,0,0,0-12.171-11.932M72.6,127.013h0a10.881,10.881,0,1,1,10.876,10.77A10.893,10.893,0,0,1,72.6,127.013" transform="translate(-2.365 -115.081)" fill="#999"></path><path id="Path_62" data-name="Path 62" d="M57.127,115.609H55.788l-6.721,14.242-3.03,6.594-3.029-6.594-6.731-14.242h-1.34l11.033,23.352h.124Z" transform="translate(-1.158 -115.098)" fill="#999"></path><path id="Path_63" data-name="Path 63" d="M114.669,115.081h-.12v23.206h1.241V127.013l-.068-9.035,19.737,20.967h.127V115.592h-1.242v11.42l.068,9.024Z" transform="translate(-3.798 -115.081)" fill="#999"></path><path id="Path_64" data-name="Path 64" d="M4.9,130.773l3.17-6.72,3.027-6.6,3.07,6.617,3.142,6.718Zm6.13-15.692L0,138.287H1.344l3.073-6.5,13.352,0,3.084,6.51h1.341L11.16,115.081Z" transform="translate(0 -115.081)" fill="#999"></path><path id="Path_65" data-name="Path 65" d="M134.71,145.911a.516.516,0,0,1,.884.367.481.481,0,0,1-.148.363.544.544,0,0,1-.736,0,.481.481,0,0,1-.148-.363.5.5,0,0,1,.148-.367m-1.988.631a1.012,1.012,0,0,1,.412.911,1.935,1.935,0,0,1-.187.791,2.629,2.629,0,0,1-.539.774,2.929,2.929,0,0,1-2.843.7,2.676,2.676,0,0,1-.676-.3,1.513,1.513,0,0,1-.455-.439.938.938,0,0,1-.164-.516,1.012,1.012,0,0,1,.126-.494,2.2,2.2,0,0,1,.3-.423,2.362,2.362,0,0,1,.367-.33c.129-.092.236-.162.324-.214l.307-.165c-.073-.021-.156-.047-.247-.076a1.021,1.021,0,0,1-.264-.131.684.684,0,0,1-.209-.242.871.871,0,0,1-.082-.407,1.093,1.093,0,0,1,.176-.609,1.544,1.544,0,0,1,.593-.488l.406-.219a1.638,1.638,0,0,1-.236-.358,1.149,1.149,0,0,1-.093-.5,1.505,1.505,0,0,1,.208-.758,2.433,2.433,0,0,1,.539-.642,2.722,2.722,0,0,1,.725-.445,1.981,1.981,0,0,1,.769-.165,1.714,1.714,0,0,1,.5.066,1.571,1.571,0,0,1,.379.171,1.336,1.336,0,0,1,.275.224,1.527,1.527,0,0,1,.176.231,2.733,2.733,0,0,1,.318-.39.7.7,0,0,1,.527-.192.715.715,0,0,1,.5.2.633.633,0,0,1,.215.483.475.475,0,0,1-.11.324.459.459,0,0,1-.363.127.424.424,0,0,1-.258-.077.235.235,0,0,1-.1-.2.308.308,0,0,1,.033-.154.521.521,0,0,1,.077-.1.468.468,0,0,0,.076-.1.358.358,0,0,0,.034-.17.167.167,0,0,0-.055-.121.208.208,0,0,0-.154-.055.5.5,0,0,0-.346.164,1.427,1.427,0,0,0-.291.418.822.822,0,0,1,.115.258,1.128,1.128,0,0,1,.049.312,1.337,1.337,0,0,1-.2.692,2.448,2.448,0,0,1-.527.615,2.789,2.789,0,0,1-.708.439,2.051,2.051,0,0,1-1.521.039,4.394,4.394,0,0,1-.412-.214l-.231.109a1.647,1.647,0,0,0-.533.368.608.608,0,0,0-.181.4.375.375,0,0,0,.236.357,2.163,2.163,0,0,0,.763.149l1.406.066a2.058,2.058,0,0,1,1.06.307m-1.982-1.763a.986.986,0,0,0,.648.192.964.964,0,0,0,.631-.22,1.778,1.778,0,0,0,.445-.543,2.643,2.643,0,0,0,.258-.7,3.282,3.282,0,0,0,.082-.7.793.793,0,0,0-.247-.67.989.989,0,0,0-.61-.187.9.9,0,0,0-.6.225,2.118,2.118,0,0,0-.451.543,2.787,2.787,0,0,0-.285.682,2.493,2.493,0,0,0-.1.648.922.922,0,0,0,.23.73m-1.592,2.876a1.681,1.681,0,0,0-.154.764,1.325,1.325,0,0,0,.116.587,1.119,1.119,0,0,0,.307.391,1.2,1.2,0,0,0,.439.219,1.945,1.945,0,0,0,.5.066,2.51,2.51,0,0,0,.894-.16,2.839,2.839,0,0,0,.747-.412,1.975,1.975,0,0,0,.51-.582,1.37,1.37,0,0,0,.187-.681.924.924,0,0,0-.061-.335.71.71,0,0,0-.2-.286,1.106,1.106,0,0,0-.384-.208,2.062,2.062,0,0,0-.594-.094l-1.548-.055-.307.242a1.707,1.707,0,0,0-.451.543m-2.157-1.839a1.842,1.842,0,0,0-.072.472c0,.19.092.286.275.286a.663.663,0,0,0,.4-.127,1.488,1.488,0,0,0,.3-.285,2,2,0,0,0,.209-.319c.055-.105.093-.181.115-.224l.143.076a3.285,3.285,0,0,1-.165.307,1.663,1.663,0,0,1-.285.357,1.848,1.848,0,0,1-.406.3,1.106,1.106,0,0,1-.539.127q-.724,0-.724-.659a1.823,1.823,0,0,1,.033-.269,2.073,2.073,0,0,1,.088-.346h-.022q-.154.187-.351.412a3.331,3.331,0,0,1-.445.418,2.471,2.471,0,0,1-.543.318,1.669,1.669,0,0,1-.659.127,1.226,1.226,0,0,1-.445-.083,1.028,1.028,0,0,1-.379-.252,1.2,1.2,0,0,1-.258-.433,1.892,1.892,0,0,1-.093-.626,2.328,2.328,0,0,1,.176-.878,4.147,4.147,0,0,1,.455-.84,4.557,4.557,0,0,1,.648-.742,6.109,6.109,0,0,1,.746-.593,3.864,3.864,0,0,1,.747-.4,1.84,1.84,0,0,1,.653-.143.868.868,0,0,1,.561.187.605.605,0,0,1,.23.494h.022l.187-.538h.769l-1.2,3.327q-.1.286-.17.549m.252-2.937a1.025,1.025,0,0,0,.039-.258.921.921,0,0,0-.028-.214.6.6,0,0,0-.1-.215.613.613,0,0,0-.192-.17.623.623,0,0,0-.318-.072,1.379,1.379,0,0,0-.708.2,2.856,2.856,0,0,0-.649.533,4.613,4.613,0,0,0-.554.752,6.791,6.791,0,0,0-.434.857,5.622,5.622,0,0,0-.279.84,3.075,3.075,0,0,0-.1.714,1.071,1.071,0,0,0,.136.571.5.5,0,0,0,.456.219,1.25,1.25,0,0,0,.648-.2,3.148,3.148,0,0,0,.6-.472,4.424,4.424,0,0,0,.472-.549,1.959,1.959,0,0,0,.252-.428l.582-1.614c.088-.234.144-.4.17-.5m-11.886-.785.043-.154h1.736l-.418,1.252h.022a5.045,5.045,0,0,1,.335-.418,3.321,3.321,0,0,1,.456-.428,2.95,2.95,0,0,1,.538-.335,1.305,1.305,0,0,1,.571-.137.826.826,0,0,1,.642.247.875.875,0,0,1,.225.61,1.71,1.71,0,0,1-.055.417h.022a4.3,4.3,0,0,1,.3-.384,3.385,3.385,0,0,1,.423-.418,2.652,2.652,0,0,1,.51-.335,1.212,1.212,0,0,1,.549-.137,1.039,1.039,0,0,1,.73.247.8.8,0,0,1,.269.61,1.169,1.169,0,0,1-.06.367q-.061.181-.148.434l-.714,2.031c-.044.125-.084.256-.121.4a1.472,1.472,0,0,0-.054.373.432.432,0,0,0,.054.2.237.237,0,0,0,.231.1.64.64,0,0,0,.363-.11,1.435,1.435,0,0,0,.3-.263,2.176,2.176,0,0,0,.231-.324c.066-.114.121-.211.164-.291l.121.055c-.037.072-.088.17-.154.29a1.847,1.847,0,0,1-.258.358,1.481,1.481,0,0,1-.39.3,1.127,1.127,0,0,1-.549.127,1.089,1.089,0,0,1-.593-.154.553.553,0,0,1-.242-.506,1.689,1.689,0,0,1,.022-.275,1.821,1.821,0,0,1,.109-.351l.922-2.625a1.429,1.429,0,0,0,.088-.439.46.46,0,0,0-.088-.3.422.422,0,0,0-.34-.109.99.99,0,0,0-.521.187,2.984,2.984,0,0,0-.582.5,5.126,5.126,0,0,0-.555.742,4.992,4.992,0,0,0-.439.9l-.824,2.294h-.769l1.285-3.546a2.468,2.468,0,0,0,.154-.637.593.593,0,0,0-.076-.318.3.3,0,0,0-.275-.121,1.134,1.134,0,0,0-.489.148,2.642,2.642,0,0,0-.6.439,4.3,4.3,0,0,0-.6.725,4.586,4.586,0,0,0-.5,1.016l-.824,2.294h-.758l1.582-4.557Z" transform="translate(-3.806 -115.967)" fill="#999"></path></g></svg> 