<?xml version="1.0" encoding="UTF-8"?> <svg xmlns="http://www.w3.org/2000/svg" width="79.293" height="55.428" viewBox="0 0 79.293 55.428"><g id="Group_204" data-name="Group 204" transform="translate(0.094)"><path id="Path_591" data-name="Path 591" d="M720.065,359.835c26.389-9.195,52.778-11.434,79.167-8.427" transform="translate(-720.065 -317.947)" fill="none" stroke="#999" stroke-width="0.569"></path><path id="Path_592" data-name="Path 592" d="M740.826,340.247l2.336-.81.808-2.336.816,2.336,2.334.81-2.334.81-.816,2.336-.808-2.336Z" transform="translate(-697.976 -331.833)" fill="#999"></path><path id="Path_593" data-name="Path 593" d="M736.313,337.693l2.336-.812.814-2.332.808,2.332,2.336.812-2.336.812-.808,2.336-.814-2.336Z" transform="translate(-702.778 -334.549)" fill="#999"></path><path id="Path_594" data-name="Path 594" d="M732.665,341.772l2.336-.81.813-2.336.812,2.336,2.334.81-2.334.812-.814,2.336-.81-2.336Z" transform="translate(-706.661 -330.211)" fill="#999"></path><path id="Path_595" data-name="Path 595" d="M737.851,348.291l2.346-.812.838-2.334.784,2.334,2.326.816-2.344.808-.843,2.336-.784-2.336Z" transform="translate(-701.142 -323.275)" fill="#999"></path><path id="Path_596" data-name="Path 596" d="M745.03,357.9a3.113,3.113,0,0,0-2.415,1.042,3.8,3.8,0,0,0-.943,2.658,3.707,3.707,0,0,0,.949,2.607,3.225,3.225,0,0,0,4.761-.019,3.817,3.817,0,0,0,.956-2.646,3.723,3.723,0,0,0-.956-2.592,3.07,3.07,0,0,0-2.353-1.05m-.045-1.319a4.31,4.31,0,0,1,3.3,1.422,5.066,5.066,0,0,1,1.317,3.564,4.984,4.984,0,0,1-1.329,3.556,4.436,4.436,0,0,1-3.356,1.4,4.19,4.19,0,0,1-3.218-1.4,5.013,5.013,0,0,1-1.29-3.523,5.143,5.143,0,0,1,1.3-3.6,4.26,4.26,0,0,1,3.284-1.422" transform="translate(-698.425 -311.104)" fill="#999"></path><path id="Path_597" data-name="Path 597" d="M728.807,356.65h1.129v9.675h-1.221V358.8l-2.612,3.737h-.224l-2.636-3.737v7.526h-1.215V356.65h1.143L726,360.625Z" transform="translate(-717.977 -311.034)" fill="#999"></path><path id="Path_598" data-name="Path 598" d="M755.469,356.623h1.222v5.492a7.551,7.551,0,0,1-.14,1.682,4.076,4.076,0,0,1-.353.945,2.9,2.9,0,0,1-.514.677,4.046,4.046,0,0,1-5.3.006,3.159,3.159,0,0,1-.512-.683,3.68,3.68,0,0,1-.347-.925,7.719,7.719,0,0,1-.138-1.715v-5.48h1.222v5.492a4.5,4.5,0,0,0,.277,1.9,2.063,2.063,0,0,0,.828.857,2.62,2.62,0,0,0,1.321.32,2.464,2.464,0,0,0,1.76-.642,1.992,1.992,0,0,0,.514-.819,5.5,5.5,0,0,0,.159-1.612Z" transform="translate(-688.867 -311.063)" fill="#999"></path><path id="Path_599" data-name="Path 599" d="M748.45,362.334l-.922-.636a4.37,4.37,0,0,1-1.238-1.189,2.471,2.471,0,0,1-.367-1.348,2.553,2.553,0,0,1,.7-1.853,2.4,2.4,0,0,1,1.808-.714,3.14,3.14,0,0,1,1.952.681v1.571a2.675,2.675,0,0,0-1.977-1.005,1.5,1.5,0,0,0-.98.316,1,1,0,0,0-.382.8,1.353,1.353,0,0,0,.279.817,3.512,3.512,0,0,0,.91.8l.925.625a3.137,3.137,0,0,1,1.556,2.685,2.66,2.66,0,0,1-.681,1.891,2.346,2.346,0,0,1-1.779.726,3.445,3.445,0,0,1-2.289-.879v-1.756a2.78,2.78,0,0,0,2.277,1.416,1.317,1.317,0,0,0,.949-.363,1.2,1.2,0,0,0,.382-.91,2.159,2.159,0,0,0-1.119-1.676" transform="translate(-692.555 -311.094)" fill="#999"></path><path id="Path_600" data-name="Path 600" d="M743.242,364.149v1.523a5.71,5.71,0,0,1-3.086.834,4.288,4.288,0,0,1-2.413-.656,4.564,4.564,0,0,1-1.569-1.791,5.431,5.431,0,0,1-.576-2.47,5.065,5.065,0,0,1,1.321-3.552,4.258,4.258,0,0,1,3.259-1.443,6.9,6.9,0,0,1,2.974.8v1.486a5.358,5.358,0,0,0-2.914-.966,3.143,3.143,0,0,0-2.417,1.048,4.069,4.069,0,0,0-.016,5.244,3.156,3.156,0,0,0,2.423,1.026,5.043,5.043,0,0,0,3.013-1.081" transform="translate(-703.538 -311.096)" fill="#999"></path><path id="Path_601" data-name="Path 601" d="M733.331,357.825h-.363v3.055h.46a3.069,3.069,0,0,0,1.267-.177,1.317,1.317,0,0,0,.535-.543,1.8,1.8,0,0,0,.188-.83,1.667,1.667,0,0,0-.21-.828,1.158,1.158,0,0,0-.6-.52,3.733,3.733,0,0,0-1.278-.157m-1.579,8.5v-9.674h2.124a2.815,2.815,0,0,1,2.045.729,2.593,2.593,0,0,1,.755,1.965,2.8,2.8,0,0,1-.371,1.461,2.293,2.293,0,0,1-1.061.92,4.132,4.132,0,0,1,.793.828,17.563,17.563,0,0,1,1.1,1.839c.293.549.53.964.708,1.238l.452.693h-1.445l-.372-.638c-.014-.021-.037-.062-.074-.12l-.237-.378-.378-.706-.4-.757a7.608,7.608,0,0,0-.687-.947,2.751,2.751,0,0,0-.566-.508,1.72,1.72,0,0,0-.85-.157h-.311v4.21Z" transform="translate(-707.63 -311.034)" fill="#999"></path><path id="Path_602" data-name="Path 602" d="M727.629,356.654h4.811v1.234h-3.594v2.949h3.475v1.24h-3.475v3.005h3.712v1.232h-4.93Z" transform="translate(-712.017 -311.03)" fill="#999"></path><path id="Path_603" data-name="Path 603" d="M755.946,357.825h-.361v3.055h.458a3.068,3.068,0,0,0,1.267-.177,1.294,1.294,0,0,0,.535-.543,1.776,1.776,0,0,0,.188-.83,1.646,1.646,0,0,0-.21-.828,1.158,1.158,0,0,0-.6-.52,3.735,3.735,0,0,0-1.278-.157m-1.577,8.5v-9.674h2.122a2.815,2.815,0,0,1,2.045.729,2.593,2.593,0,0,1,.755,1.965,2.8,2.8,0,0,1-.37,1.461,2.287,2.287,0,0,1-1.063.92,4.085,4.085,0,0,1,.795.828,17.292,17.292,0,0,1,1.094,1.839c.3.549.53.964.71,1.238l.452.693h-1.447l-.37-.638c-.015-.021-.039-.062-.074-.12l-.239-.378-.376-.706-.407-.757a7.571,7.571,0,0,0-.687-.947,2.7,2.7,0,0,0-.565-.508,1.716,1.716,0,0,0-.848-.157h-.312v4.21Z" transform="translate(-683.567 -311.034)" fill="#999"></path></g></svg> 