<?xml version="1.0" encoding="UTF-8"?> <svg xmlns="http://www.w3.org/2000/svg" id="Retargetly" width="66.661" height="78.031" viewBox="0 0 66.661 78.031"><path id="Path_1668" data-name="Path 1668" d="M91.268,150.164a4.09,4.09,0,0,0,1.874-.949A2.874,2.874,0,0,0,93.9,148.2a3.169,3.169,0,0,0,.268-1.315,2.971,2.971,0,0,0-1.025-2.434,4.608,4.608,0,0,0-2.987-.84H87.031v11.324H88.86v-4.767h.263l3.609,4.77H95Zm-2.408-1.655v-3.187h1.247a2.852,2.852,0,0,1,1.622.375,1.352,1.352,0,0,1,.538,1.185,1.444,1.444,0,0,1-.527,1.227,2.707,2.707,0,0,1-1.633.4Z" transform="translate(-87.031 -79.854)" fill="#999"></path><path id="Path_1669" data-name="Path 1669" d="M112.716,153.914a3.868,3.868,0,0,0-.751-1.286,3.3,3.3,0,0,0-1.157-.834,3.656,3.656,0,0,0-1.484-.294,4,4,0,0,0-1.565.294,3.525,3.525,0,0,0-1.218.834,3.782,3.782,0,0,0-.792,1.289,4.688,4.688,0,0,0-.283,1.659,4.632,4.632,0,0,0,.29,1.675,3.762,3.762,0,0,0,.819,1.286,3.6,3.6,0,0,0,1.253.823,4.244,4.244,0,0,0,1.6.292,5.715,5.715,0,0,0,1.679-.244,4.191,4.191,0,0,0,1.508-.847l-.84-1.205a3.813,3.813,0,0,1-1.071.6,3.394,3.394,0,0,1-1.17.215,2.722,2.722,0,0,1-.793-.114,2.072,2.072,0,0,1-.687-.351,2.123,2.123,0,0,1-.525-.61,2.522,2.522,0,0,1-.3-.9h5.727c.011-.1.02-.2.024-.307s.009-.217.009-.325a4.786,4.786,0,0,0-.273-1.65Zm-5.479,1a2.919,2.919,0,0,1,.226-.773,2.066,2.066,0,0,1,.417-.608,1.717,1.717,0,0,1,.606-.391,2.185,2.185,0,0,1,.805-.138,1.8,1.8,0,0,1,1.319.5,2.424,2.424,0,0,1,.645,1.409Z" transform="translate(-97.586 -84.373)" fill="#999"></path><path id="Path_1670" data-name="Path 1670" d="M127.944,150.366v-1.537h-1.565v-2.346h-1.7v2.346h-1.545v1.537h1.545v3.4a3.107,3.107,0,0,0,.733,2.278,2.774,2.774,0,0,0,2.05.731,4.286,4.286,0,0,0,.481-.026V155.12a1.442,1.442,0,0,1-.336.066,1.379,1.379,0,0,1-.481-.081.981.981,0,0,1-.388-.255,1.27,1.27,0,0,1-.264-.448,2.043,2.043,0,0,1-.1-.665v-3.371Z" transform="translate(-107.702 -81.5)" fill="#999"></path><path id="Path_1671" data-name="Path 1671" d="M209.589,150.366v-1.537h-1.565v-2.346h-1.7v2.346H204.78v1.537h1.545v3.4a3.107,3.107,0,0,0,.733,2.278,2.774,2.774,0,0,0,2.05.731,4.279,4.279,0,0,0,.481-.026V155.12a1.441,1.441,0,0,1-.336.066,1.375,1.375,0,0,1-.48-.081.98.98,0,0,1-.389-.255,1.277,1.277,0,0,1-.264-.448,2.044,2.044,0,0,1-.1-.665v-3.371Z" transform="translate(-154.447 -81.5)" fill="#999"></path><path id="Path_1672" data-name="Path 1672" d="M141.746,151.579v.937a2.921,2.921,0,0,0-2.434-1.139,3.813,3.813,0,0,0-1.521.3,3.768,3.768,0,0,0-1.229.845,3.886,3.886,0,0,0-.825,1.291,4.636,4.636,0,0,0,0,3.275,3.929,3.929,0,0,0,.825,1.29,3.777,3.777,0,0,0,2.75,1.148,3.106,3.106,0,0,0,1.431-.307,2.989,2.989,0,0,0,1-.825v.931h1.69v-7.748Zm-.064,4.86a2.389,2.389,0,0,1-.478.786,2.2,2.2,0,0,1-.736.52,2.315,2.315,0,0,1-.955.191,2.35,2.35,0,0,1-.984-.2,2.19,2.19,0,0,1-.731-.533,2.362,2.362,0,0,1-.461-.79,2.932,2.932,0,0,1,0-1.925,2.371,2.371,0,0,1,.461-.788,2.19,2.19,0,0,1,.731-.533,2.35,2.35,0,0,1,.984-.2,2.315,2.315,0,0,1,.955.189,2.212,2.212,0,0,1,.736.523,2.4,2.4,0,0,1,.478.784,2.967,2.967,0,0,1,0,1.973Z" transform="translate(-114.746 -84.302)" fill="#999"></path><path id="Path_1673" data-name="Path 1673" d="M160.115,151.786a2.33,2.33,0,0,0-.964.819v-.874h-1.675v7.749h1.692v-4.263a2.675,2.675,0,0,1,.136-.883,1.9,1.9,0,0,1,.382-.654,1.548,1.548,0,0,1,.582-.4,1.958,1.958,0,0,1,.727-.138v-1.587A2.945,2.945,0,0,0,160.115,151.786Z" transform="translate(-127.364 -84.402)" fill="#999"></path><path id="Path_1674" data-name="Path 1674" d="M172.718,151.7v.929a2.817,2.817,0,0,0-1.084-.845,3.669,3.669,0,0,0-1.5-.286,3.356,3.356,0,0,0-1.306.27,3.56,3.56,0,0,0-1.152.784,3.9,3.9,0,0,0-.821,1.258,4.7,4.7,0,0,0,0,3.365,3.906,3.906,0,0,0,.821,1.258,3.575,3.575,0,0,0,1.152.786,3.355,3.355,0,0,0,1.306.27,3.676,3.676,0,0,0,1.5-.285,2.811,2.811,0,0,0,1.084-.847v.184a2.261,2.261,0,0,1-.632,1.7,2.508,2.508,0,0,1-1.826.615,4.517,4.517,0,0,1-1.376-.211,5.527,5.527,0,0,1-1.159-.518V161.9a6.5,6.5,0,0,0,.784.274,6.006,6.006,0,0,0,.869.173,7,7,0,0,0,.882.057,5.263,5.263,0,0,0,1.743-.27,3.6,3.6,0,0,0,1.306-.781,3.427,3.427,0,0,0,.821-1.238,4.453,4.453,0,0,0,.287-1.642V151.7Zm-.02,4.744a2.279,2.279,0,0,1-.465.76,2.2,2.2,0,0,1-.724.507,2.329,2.329,0,0,1-.935.184,2.273,2.273,0,0,1-.957-.193,2.141,2.141,0,0,1-.72-.522,2.267,2.267,0,0,1-.454-.764,2.791,2.791,0,0,1,0-1.853,2.3,2.3,0,0,1,.454-.764,2.1,2.1,0,0,1,.72-.518,2.493,2.493,0,0,1,1.892-.005,2.2,2.2,0,0,1,.724.507,2.283,2.283,0,0,1,.465.76,2.827,2.827,0,0,1,0,1.9Z" transform="translate(-132.557 -84.373)" fill="#999"></path><path id="Path_1675" data-name="Path 1675" d="M194.46,153.914a3.9,3.9,0,0,0-.753-1.286,3.309,3.309,0,0,0-1.157-.834,3.656,3.656,0,0,0-1.484-.294,4.01,4.01,0,0,0-1.565.294,3.525,3.525,0,0,0-1.218.834,3.782,3.782,0,0,0-.792,1.289,4.679,4.679,0,0,0-.283,1.659,4.587,4.587,0,0,0,.292,1.675,3.727,3.727,0,0,0,.817,1.286,3.622,3.622,0,0,0,1.253.823,4.246,4.246,0,0,0,1.6.292,5.706,5.706,0,0,0,1.677-.244,4.214,4.214,0,0,0,1.51-.847l-.843-1.205a3.815,3.815,0,0,1-1.071.6,3.391,3.391,0,0,1-1.167.215,2.723,2.723,0,0,1-.8-.114,2.1,2.1,0,0,1-.687-.351,2.13,2.13,0,0,1-.524-.61,2.513,2.513,0,0,1-.3-.9h5.73c.011-.1.02-.2.024-.307s.009-.217.009-.325a4.838,4.838,0,0,0-.273-1.65Zm-5.481,1a2.932,2.932,0,0,1,.226-.773,2.108,2.108,0,0,1,.417-.608,1.715,1.715,0,0,1,.606-.391,2.188,2.188,0,0,1,.806-.138,1.8,1.8,0,0,1,1.319.5,2.424,2.424,0,0,1,.645,1.409Z" transform="translate(-144.387 -84.373)" fill="#999"></path><path id="Path_1676" data-name="Path 1676" d="M219.019,143.608v11.545h1.7V143.608Z" transform="translate(-162.6 -79.854)" fill="#999"></path><path id="Path_1677" data-name="Path 1677" d="M230.7,151.972l-2.4,4.447-1.614-4.447h-1.9l2.559,6.155-2.524,4.543H226.7l5.862-10.7Z" transform="translate(-165.899 -84.643)" fill="#999"></path><g id="Group_205" data-name="Group 205" transform="translate(-117.257 -38.002)"><path id="Path_1678" data-name="Path 1678" d="M168.638,90.168H134.32a3.564,3.564,0,0,1-3.612-3.514V45.485A7.051,7.051,0,0,1,131,43.444a7.592,7.592,0,0,1,1.571-2.883,7.413,7.413,0,0,1,4.794-2.51h.048a6.265,6.265,0,0,1,.778-.049h.227L160.9,73.648l9.021,14.285a1.465,1.465,0,0,1-1.283,2.235Z" fill="#999" opacity="0.7"></path><path id="Path_1679" data-name="Path 1679" d="M170.1,57.388a19.21,19.21,0,0,1-9.2,16.261,18.92,18.92,0,0,1-8.373,2.753,4.181,4.181,0,0,1-.648.065c-.34,0-.7.016-1.02.016H130.708v-31A7.052,7.052,0,0,1,131,43.444a7.592,7.592,0,0,1,1.571-2.883,7.413,7.413,0,0,1,4.794-2.51h.048a6.265,6.265,0,0,1,.778-.049H150.5a19.841,19.841,0,0,1,18.237,12.227,18.782,18.782,0,0,1,1.363,7.159Z" fill="#999" opacity="0.7"></path></g></svg> 