<?xml version="1.0" encoding="UTF-8"?> <svg xmlns="http://www.w3.org/2000/svg" width="234" height="188" viewBox="0 0 234 188"><g id="Group_207" data-name="Group 207" transform="translate(-1182 -12177)"><g id="logo" transform="translate(1214.117 12215.229)"><path id="Path_5" data-name="Path 5" d="M-.117,31.479V54.127H1.454V44.148H12.3V42.7H1.454V32.917H13.9V31.479Z" transform="translate(0 11.079)" fill="#999"></path><path id="Path_6" data-name="Path 6" d="M21.729,31.479H20.154V54.127h15.9V52.682H21.729Z" transform="translate(7.313 11.079)" fill="#999"></path><path id="Path_7" data-name="Path 7" d="M83.427,50.889l-6.7-19.638-.061-.179H76.16L69.407,50.889,63.6,31.625H62l7.054,23.207h.52l6.837-19.909,6.738,19.723.061.186h.522l7.052-23.207h-1.56Z" transform="translate(22.413 10.933)" fill="#999"></path><path id="Path_8" data-name="Path 8" d="M93.426,43.5h10.51V42.051H93.426V32.925h11.708V31.479H91.848v22.65H105.6V52.682H93.426Z" transform="translate(33.18 11.079)" fill="#999"></path><path id="Path_9" data-name="Path 9" d="M112.323,31.072v23.2H113.8V34.806l15,19.916.084.106h.526v-23.2h-1.47V51.094L112.86,31.072Z" transform="translate(40.568 10.933)" fill="#999"></path><path id="Path_10" data-name="Path 10" d="M51.118,63.929v-20.1a10.076,10.076,0,0,1,0,20.1ZM40.332,53.882A10.092,10.092,0,0,1,49.71,43.827v20.1A10.087,10.087,0,0,1,40.331,53.88ZM51.118,42.418V.771H49.71V42.418a11.483,11.483,0,0,0,0,22.923v39.624h1.408V65.34a11.483,11.483,0,0,0,0-22.923Z" transform="translate(14.086)" fill="#999"></path></g><rect id="Rectangle_176" data-name="Rectangle 176" width="234" height="188" transform="translate(1182 12177)" fill="none"></rect></g></svg> 