<?xml version="1.0" encoding="UTF-8"?> <svg xmlns="http://www.w3.org/2000/svg" width="100.596" height="18.949" viewBox="0 0 100.596 18.949"><g id="Group_1574" data-name="Group 1574" transform="translate(-233.832 -171.719)"><g id="Group_1568" data-name="Group 1568"><path id="Path_13397" data-name="Path 13397" d="M236.965,171.721q6.371-.006,12.751,0c-.206.963-.376,1.934-.6,2.9-2.309,0-4.615-.01-6.925,0-.171.8-.342,1.594-.509,2.394,2.037.009,4.077,0,6.112.005-.205.962-.415,1.925-.624,2.887h-6.138c-.227,1.014-.445,2.027-.671,3.041H247.6c-.226,1.013-.475,2.019-.692,3.033q-6.54.018-13.076,0C234.869,181.23,235.929,176.478,236.965,171.721Z" fill="#999"></path><g id="Group_1566" data-name="Group 1566"><path id="Path_13398" data-name="Path 13398" d="M252.689,173.261a13.081,13.081,0,0,1,3.729-.564c2.263.022,4.658-.2,6.754.834a2.85,2.85,0,0,1,1.57,2.417,14.309,14.309,0,0,1-.521,3.917h-4.394c2.973,3.6,5.971,7.19,8.932,10.8-2.011.008-4.021,0-6.031,0-1.3-1.556-2.567-3.144-3.876-4.692a15.928,15.928,0,0,1-8.443-.3,2.684,2.684,0,0,1-1.8-1.967,12.236,12.236,0,0,1,.236-4.2,12.486,12.486,0,0,1,1.291-4.171,4.688,4.688,0,0,1,2.553-2.074Zm3.644,2.011a2.8,2.8,0,0,0-1.488,1.467,15.861,15.861,0,0,0-1.193,4.465,4.276,4.276,0,0,0-.045,1.737,1.807,1.807,0,0,0,1.592,1.074,3.287,3.287,0,0,0,2.2-.5,4.968,4.968,0,0,0,1.488-2.84,20.871,20.871,0,0,0,.679-3.388c0-.573.128-1.313-.436-1.685a3.652,3.652,0,0,0-2.8-.33Z" fill="#999"></path></g><g id="Group_1567" data-name="Group 1567"><path id="Path_13399" data-name="Path 13399" d="M325.608,173.3q2.6-.008,5.209,0c-2.233,1.989-4.5,3.948-6.745,5.924,1.467,2.255,2.952,4.5,4.406,6.758H321.92c-.726-1.266-1.463-2.527-2.194-3.794-1.193,1.262-2.412,2.5-3.61,3.76-2.626.08-5.269.012-7.9.034-.112-.928-.2-1.855-.316-2.784-1.8.017-3.606-.009-5.411.017-.625.928-1.254,1.856-1.9,2.767h-3.721c2.985-4.229,5.988-8.447,8.969-12.682,2.126-.017,4.251.008,6.377-.009.428,3.4.821,6.8,1.241,10.193,1.424-1.249,2.789-2.57,4.2-3.836-1.367-2.122-2.766-4.227-4.14-6.343,2.25-.022,4.5-.005,6.75-.009.672,1.078,1.352,2.156,2.005,3.242C323.409,175.49,324.5,174.391,325.608,173.3Zm-21.293,7.207h3.276c-.162-1.394-.312-2.793-.474-4.188C306.172,177.706,305.247,179.109,304.315,180.507Z" fill="#999"></path></g><path id="Path_13400" data-name="Path 13400" d="M265.277,180.7q.795-3.7,1.617-7.4c1.774-.005,3.549,0,5.324,0-.65,2.989-1.33,5.975-1.984,8.965a1.255,1.255,0,0,0,.5,1.421,2.877,2.877,0,0,0,2.8-.1,1.864,1.864,0,0,0,.727-1.207c.7-3.023,1.377-6.057,2.083-9.08h5.329q-1.057,4.767-2.117,9.529a3.961,3.961,0,0,1-2.553,2.9,17.489,17.489,0,0,1-7.016.586C268.407,184.454,266.864,182.556,265.277,180.7Z" fill="#999"></path><path id="Path_13401" data-name="Path 13401" d="M280.875,185.986q1.381-6.351,2.794-12.691c1.766.009,3.537,0,5.3.005-.928,4.23-1.874,8.457-2.807,12.686Z" fill="#999"></path><path id="Path_13402" data-name="Path 13402" d="M290.94,173.3q5.717-.008,11.433,0c-.2.851-.4,1.7-.611,2.549h-6.04c-.171.775-.346,1.549-.517,2.327h5.149c-.171.8-.363,1.6-.542,2.4-1.72.013-3.444-.017-5.168.013-.372,1.8-.791,3.592-1.181,5.388-1.766.009-3.532,0-5.3,0Z" fill="#999"></path></g><g id="Group_1573" data-name="Group 1573"><g id="Group_1570" data-name="Group 1570"><g id="Group_1569" data-name="Group 1569"><path id="Path_13403" data-name="Path 13403" d="M332.879,172.983a1.225,1.225,0,0,1,1.437.668,1.254,1.254,0,0,1-.569,1.634,1.235,1.235,0,1,1-.868-2.3Zm.081.236a.983.983,0,1,0,1.185.688.983.983,0,0,0-1.185-.688Z" fill="#999"></path></g></g><g id="Group_1572" data-name="Group 1572"><g id="Group_1571" data-name="Group 1571"><path id="Path_13404" data-name="Path 13404" d="M332.665,173.514c.329.042.774-.1,1.01.2a.394.394,0,0,1-.271.56,3.2,3.2,0,0,1,.411.59h-.3c-.15-.24-.26-.624-.616-.573v.573h-.239C332.665,174.421,332.661,173.967,332.665,173.514Zm.239.227v.342c.193,0,.616.077.561-.236-.129-.18-.377-.085-.565-.106Z" fill="#999"></path></g></g></g></g></svg> 