<?xml version="1.0" encoding="UTF-8"?> <svg xmlns="http://www.w3.org/2000/svg" width="97.157" height="23.652" viewBox="0 0 97.157 23.652"><g id="Group_17" data-name="Group 17" transform="translate(0 0)"><g id="Group_16" data-name="Group 16" transform="translate(0)"><path id="Path_66" data-name="Path 66" d="M376.641,125.619a18.145,18.145,0,0,0-4.826-.4c-2.976.012-5.952,0-8.928,0-.679,0-.686.01-.687.7,0,1.433.012,2.865-.007,4.3-.006.43.087.613.577.613,2.878,0,5.757.05,8.635.05.95,0,1.9-.1,2.851-.151.21-.012.437-.046.438.276q0,2.434.007,4.869a.633.633,0,0,1-.072.188c-4.09-.642-8.193-.243-12.339-.355-.037,2.79-.428,5.546.431,8.267H351.7c.628-3.51.271-7.011.326-10.5s.029-7-.007-10.5a22.624,22.624,0,0,0-.317-2.568h.6q11.865,0,23.728,0c.205,0,.41-.026.615-.04v5.254Z" transform="translate(-279.484 -120.365)" fill="#999"></path><path id="Path_67" data-name="Path 67" d="M327.694,127.962c0,.922.018,1.845-.008,2.766-.013.457.129.615.585.494a2.241,2.241,0,0,1,.518.018,26.892,26.892,0,0,0,3.749-.079,3.219,3.219,0,0,0-.342-6.408c-1.364-.162-2.757-.086-4.137-.12-.306-.008-.37.156-.368.419.006.97,0,1.94,0,2.91m-10.527-7.553h.488c6.558,0,13.115-.027,19.673.015a8.512,8.512,0,0,1,5.877,2.118,7.084,7.084,0,0,1,2.171,4.342,8.347,8.347,0,0,1-.226,3.3A6.662,6.662,0,0,1,341.3,134.6a10.015,10.015,0,0,1-4.279,1c-2.876.084-5.757.078-8.635.109-.7.008-.687.006-.7.715-.019,1.367-.1,2.735-.058,4.1.029,1.027.187,2.051.314,3.072.036.28.02.424-.306.424q-5.182-.009-10.362-.008a.566.566,0,0,1-.148-.046c.085-.7.172-1.4.251-2.1a6.27,6.27,0,0,0,.048-.712c0-5.905.014-11.81-.01-17.714,0-.977-.161-1.952-.256-3.025" transform="translate(-278.338 -120.366)" fill="#999"></path><path id="Path_68" data-name="Path 68" d="M299.349,144.015H289.026c-.607,0-.622,0-.509-.58a33.2,33.2,0,0,0,.276-6.326c0-.478-.033-.958.006-1.432a2.719,2.719,0,0,0-.656-1.984c-2.968-3.7-5.917-7.414-8.915-11.088a26.013,26.013,0,0,0-2.221-2.166,2.935,2.935,0,0,1,.306-.03q4.9,0,9.791,0a8.242,8.242,0,0,1,1.091.081.453.453,0,0,1,.324.209,26.345,26.345,0,0,0,3.285,5.576c.539.824,1.126,1.618,1.7,2.42a5.058,5.058,0,0,0,.428.463c.076-.057.138-.083.168-.13q2.341-3.543,4.672-7.093a10.171,10.171,0,0,0,.625-1.18.53.53,0,0,1,.544-.356q5.4.015,10.793.008a.349.349,0,0,1,.088.023c-.009.028-.008.068-.026.081-2.012,1.477-3.318,3.591-4.886,5.463-2.146,2.561-4.217,5.185-6.325,7.779a3.162,3.162,0,0,0-.564,2.118c0,1.639-.017,3.279.032,4.917.029.948.178,1.891.272,2.837.011.109.014.219.024.386" transform="translate(-277.007 -120.366)" fill="#999"></path></g></g></svg> 