<?xml version="1.0" encoding="UTF-8"?> <svg xmlns="http://www.w3.org/2000/svg" width="321" height="146" viewBox="0 0 321 146"><g id="Group_208" data-name="Group 208" transform="translate(-720 -11925)"><g id="Group_206" data-name="Group 206" transform="translate(724.18 11916.587)"><rect id="Rectangle_173" data-name="Rectangle 173" width="7.449" height="51.837" transform="translate(131.015 42.098)" fill="#999"></rect><path id="Path_1680" data-name="Path 1680" d="M230.088,67.94c0-13.91-10.717-26.526-27.97-26.526-17.71,0-27.742,13-27.742,26.754,0,14.441,11.1,26.45,27.362,26.45C218.687,94.618,230.088,82.837,230.088,67.94ZM202.193,87.7c-10.869,0-20.142-7.753-20.142-19.534,0-8.665,5.852-19.762,20.37-19.762a19.515,19.515,0,0,1,20.066,19.458,21.725,21.725,0,0,1-5.169,13.682C213.746,85.421,207.741,87.7,202.193,87.7Z" transform="translate(-25.724)" fill="#999"></path><path id="Path_1681" data-name="Path 1681" d="M298.742,42.277,281.564,63.559,264.311,42.277h-6.993V94.114h7.449V53.755L280.88,73.82h1.368L298.21,53.755V94.114h7.449V42.277Z" transform="translate(-42.993 -0.18)" fill="#999"></path><path id="Path_1682" data-name="Path 1682" d="M64.13,129.974a6.824,6.824,0,0,1-.491,3.218c-.466.836-1.706,2.28-4.549,2.28a5.188,5.188,0,0,1-3.954-1.444c-.9-.887-1.111-1.774-1.111-4.054v-9.8H51.492v9.8a8.707,8.707,0,0,0,.983,4.687c1.4,2.179,4.135,3.014,6.615,3.014a8.242,8.242,0,0,0,5.556-1.875c1.991-1.748,1.991-4.155,1.991-5.827v-9.8H64.13Z" transform="translate(-0.14 -16.397)" fill="#999"></path><path id="Path_1683" data-name="Path 1683" d="M93,133.572l-11.888-13.4H79.073v17.279h2.377v-13.3l11.785,13.3h2.171V120.169H93Z" transform="translate(-5.882 -16.397)" fill="#999"></path><path id="Path_1684" data-name="Path 1684" d="M128.247,127.263l-5.867-7.094H120v17.279h2.532V123.995l5.479,6.689h.465l5.427-6.689v13.453h2.532V120.169h-2.352Z" transform="translate(-14.404 -16.397)" fill="#999"></path><rect id="Rectangle_174" data-name="Rectangle 174" width="2.533" height="17.279" transform="translate(129.066 103.772)" fill="#999"></rect><path id="Path_1685" data-name="Path 1685" d="M169.942,131.079h3.385v3.6a11.478,11.478,0,0,1-3.851.76c-4.264,0-7.081-2.862-7.081-6.688a6.668,6.668,0,0,1,6.848-6.663,12.675,12.675,0,0,1,6.254,1.8v-2.534a15.164,15.164,0,0,0-6.2-1.47c-6.048,0-9.536,4.459-9.536,9.019,0,3.927,2.816,8.715,9.639,8.715a15.719,15.719,0,0,0,6.461-1.419v-7.3h-5.918Z" transform="translate(-22.681 -16.337)" fill="#999"></path><path id="Path_1686" data-name="Path 1686" d="M195.874,129.239a4.324,4.324,0,0,0,2.945-4.256,4.468,4.468,0,0,0-2.765-4.257,7.488,7.488,0,0,0-3.024-.557h-4.419v17.279h2.507v-7.524h.672c1.215,0,2.067,0,3.8,2.179.569.735,3.023,4.51,3.618,5.345h3c-1.215-1.671-1.654-2.254-2.4-3.445C198.458,131.874,197.476,130.279,195.874,129.239Zm-1.318-1.773a9.194,9.194,0,0,1-2.455.253h-.983v-5.447h.775a7.053,7.053,0,0,1,3,.405,2.514,2.514,0,0,1,1.344,2.306A2.614,2.614,0,0,1,194.556,127.466Z" transform="translate(-28.688 -16.397)" fill="#999"></path><path id="Path_1687" data-name="Path 1687" d="M216.813,120.041l-7.572,17.38h2.584l2.223-5.092h7.494l2.352,5.092h2.584l-7.882-17.38ZM215.03,130.1l2.636-6.258,2.843,6.258Z" transform="translate(-32.983 -16.37)" fill="#999"></path><path id="Path_1688" data-name="Path 1688" d="M232.2,122.348h6.048v15.1h2.532v-15.1h6.151v-2.179H232.2Z" transform="translate(-37.762 -16.397)" fill="#999"></path><rect id="Rectangle_175" data-name="Rectangle 175" width="2.533" height="17.279" transform="translate(214.721 103.772)" fill="#999"></rect><path id="Path_1689" data-name="Path 1689" d="M277.076,119.881c-6.022,0-9.433,4.333-9.433,8.919,0,4.813,3.773,8.816,9.3,8.816,5.763,0,9.639-3.927,9.639-8.893C286.586,124.086,282.942,119.881,277.076,119.881Zm5.169,13.377a7.319,7.319,0,0,1-5.143,2.052A6.556,6.556,0,1,1,284,128.7,7.159,7.159,0,0,1,282.245,133.258Z" transform="translate(-45.142 -16.337)" fill="#999"></path><path id="Path_1690" data-name="Path 1690" d="M311.634,133.572l-11.888-13.4H297.7v17.279h2.377v-13.3l11.785,13.3h2.171V120.169h-2.4Z" transform="translate(-51.401 -16.397)" fill="#999"></path><path id="Path_1691" data-name="Path 1691" d="M84.881,68.281a1.053,1.053,0,1,0-1.053-1.053A1.053,1.053,0,0,0,84.881,68.281Z" transform="translate(-6.872 -5.155)" fill="#999"></path><path id="Path_1692" data-name="Path 1692" d="M80.054,75.288a.455.455,0,0,0,.658-.208l1.881-4.432.138,4.315-.705,5.466a.468.468,0,0,0,.29.5.453.453,0,0,0,.608-.371l.674-5.2h.911l.673,5.2a.453.453,0,0,0,.608.371.47.47,0,0,0,.291-.5l-.705-5.466.138-4.315,1.88,4.431,0,0a.51.51,0,0,0,.036.068l.013.017a.435.435,0,0,0,.038.046l.016.017a.427.427,0,0,0,.051.041l.011.009a.475.475,0,0,0,.068.037l.021.008a.34.34,0,0,0,.057.017l.023.006a.466.466,0,0,0,.082.008h.378l-.607,3.078a.746.746,0,0,0,.484.847v1.3a.378.378,0,1,0,.756,0V79.324h0a.332.332,0,0,0,.04,0h.492l.038,0h0v1.258a.378.378,0,1,0,.756,0v-1.3a.749.749,0,0,0,.483-.849l-.607-3.075h.378a.467.467,0,0,0,.082-.008l.023-.006a.34.34,0,0,0,.057-.017l.021-.008a.483.483,0,0,0,.069-.037l.011-.009a.426.426,0,0,0,.051-.041l.016-.017a.435.435,0,0,0,.038-.046l.013-.017a.437.437,0,0,0,.037-.068l0,0,1.949-4.593.384,1.868a2.052,2.052,0,0,1-.029.937l-1.778,7.665h5.538l-1.782-7.678a2.046,2.046,0,0,1-.025-.924l.387-1.884,1.505,3.7a.454.454,0,0,0,.841-.342L96.131,69.69a.455.455,0,0,0-.42-.283H92.545a.455.455,0,0,0-.418.277l-2.021,4.764h-2l-2.021-4.764a.455.455,0,0,0-.418-.277H82.433a.453.453,0,0,0-.417.277l-2.132,5.022A.467.467,0,0,0,80.054,75.288Z" transform="translate(-6.043 -5.828)" fill="#999"></path><path id="Path_1693" data-name="Path 1693" d="M97.592,68.287a1.054,1.054,0,1,0-1.053-1.054A1.054,1.054,0,0,0,97.592,68.287Z" transform="translate(-9.519 -5.156)" fill="#999"></path><path id="Path_1694" data-name="Path 1694" d="M91.336,75.067a.79.79,0,1,0-.79-.79A.79.79,0,0,0,91.336,75.067Z" transform="translate(-8.271 -6.678)" fill="#999"></path><path id="Path_1695" data-name="Path 1695" d="M114.787,66.706c0-8.231-3.774-17.442-9.917-24.305H99.4c1.431,1.319,3.427,3.617,3.427,3.617a32.616,32.616,0,0,1,8.357,20.909c0,.087,0,.173,0,.261h-8.76C101.087,53.349,90.066,42.4,76.68,42.4,62.4,42.4,50.82,54.692,50.82,69.856c0,8.232,3.774,17.443,9.912,24.306h5.479c-1.429-1.319-3.428-3.618-3.428-3.618a32.62,32.62,0,0,1-8.357-20.908c0-.087,0-.173,0-.26h8.76c1.332,13.838,12.354,24.787,25.737,24.787C103.209,94.162,114.787,81.87,114.787,66.706Zm-25.3,23.831V84.056a14.648,14.648,0,0,1,9.441,3.975A21.119,21.119,0,0,1,89.488,90.537Zm0-7.832V78.673h12.13a16.883,16.883,0,0,1-6.523,5.263A16.367,16.367,0,0,0,89.488,82.7Zm10.687,4.606a15.741,15.741,0,0,0-3.383-2.549,19.017,19.017,0,0,0,6.556-6.088h4.891A23.1,23.1,0,0,1,100.174,87.31ZM111.112,68.8a24.616,24.616,0,0,1-2.079,8.265h-4.721a16.17,16.17,0,0,0,1.975-7.575c0-.131,0-.467-.007-.69ZM98.8,67.188H94.307v-.113a16.2,16.2,0,0,0-1.97-7.574h4.433A24.568,24.568,0,0,1,98.8,67.188Zm-2.824-9.3h-4.6A18.969,18.969,0,0,0,84.821,51.8a15.772,15.772,0,0,0,3.272-2.437A23.124,23.124,0,0,1,95.975,57.889ZM77.744,46.045a21.139,21.139,0,0,1,9.11,2.588,14.659,14.659,0,0,1-9.11,3.859Zm0,7.8a16.337,16.337,0,0,0,5.38-1.222,16.886,16.886,0,0,1,6.52,5.264h-11.9ZM76.12,46.025V52.5a14.637,14.637,0,0,1-9.441-3.973A21.108,21.108,0,0,1,76.12,46.025Zm0,7.833v4.031H63.988a16.885,16.885,0,0,1,6.523-5.264A16.381,16.381,0,0,0,76.12,53.858ZM65.431,49.252A15.778,15.778,0,0,0,68.814,51.8a19,19,0,0,0-6.555,6.089h-4.89A23.1,23.1,0,0,1,65.431,49.252ZM54.5,67.765A24.611,24.611,0,0,1,56.574,59.5h4.721a16.192,16.192,0,0,0-1.972,7.574c0,.131,0,.467.006.69Zm6.259,0c-.007-.2-.014-.515-.014-.69A14.916,14.916,0,0,1,62.908,59.5H90.726a14.922,14.922,0,0,1,2.166,7.574c0,.033,0,.072,0,.113h-.015L92.851,68.8h12c0,.2.012.514.012.69a14.928,14.928,0,0,1-2.166,7.575H74.892a14.945,14.945,0,0,1-2.16-7.575c0-.032,0-.071,0-.112h0l.025-1.611Zm6.055,1.611H71.3c0,.042,0,.081,0,.112a16.179,16.179,0,0,0,1.974,7.575h-4.43A24.59,24.59,0,0,1,66.81,69.375Zm2.824,9.3h4.6a19.025,19.025,0,0,0,6.556,6.088A15.738,15.738,0,0,0,77.516,87.2,23.143,23.143,0,0,1,69.634,78.673ZM87.866,90.517a21.128,21.128,0,0,1-9.112-2.588,14.662,14.662,0,0,1,9.112-3.86Zm0-7.8a16.336,16.336,0,0,0-5.38,1.221,16.838,16.838,0,0,1-6.517-5.263h11.9Z" transform="translate(0 -0.205)" fill="#999"></path></g><rect id="Rectangle_177" data-name="Rectangle 177" width="321" height="146" transform="translate(720 11925)" fill="none"></rect></g></svg> 